<?xml version="1.0" encoding="UTF-8" standalone="no"?>
<svg
   width="136"
   height="50"
   viewBox="0 0 136 50"
   fill="none"
   version="1.1"
   id="svg26"
   sodipodi:docname="cfg-logo.svg"
   inkscape:version="1.3.2 (091e20e, 2023-11-25, custom)"
   xmlns:inkscape="http://www.inkscape.org/namespaces/inkscape"
   xmlns:sodipodi="http://sodipodi.sourceforge.net/DTD/sodipodi-0.dtd"
   xmlns="http://www.w3.org/2000/svg"
   xmlns:svg="http://www.w3.org/2000/svg">
  <sodipodi:namedview
     id="namedview26"
     pagecolor="#ffffff"
     bordercolor="#000000"
     borderopacity="0.25"
     inkscape:showpageshadow="2"
     inkscape:pageopacity="0.0"
     inkscape:pagecheckerboard="0"
     inkscape:deskcolor="#d1d1d1"
     inkscape:zoom="8.0220588"
     inkscape:cx="68"
     inkscape:cy="24.993584"
     inkscape:window-width="1920"
     inkscape:window-height="1009"
     inkscape:window-x="1912"
     inkscape:window-y="-8"
     inkscape:window-maximized="1"
     inkscape:current-layer="svg26" />
  <g
     clip-path="url(#clip0_1130_14883)"
     id="g26"
     style="fill:#000000">
    <path
       d="M3.88062 20.4346H5.8998V22.4191H3.88062V29.3758H1.26514V22.4191H0V20.4346H1.26514V19.8384C1.26514 17.2197 2.81108 16.4846 4.39172 16.4846C6.51817 16.4846 7.27221 17.8381 7.27221 19.1727C7.27221 19.261 7.23751 19.5607 7.18387 19.6648H5.16469C5.21832 19.6112 5.2341 19.4377 5.2341 19.3651C5.2341 18.9423 5.05742 18.5732 4.54947 18.5732C4.04152 18.5732 3.88062 19.0307 3.88062 19.4156V20.4346Z"
       fill="#F6F5F9"
       id="path1"
       style="fill:#000000" />
    <path
       d="M11.8224 27.322C13.1223 27.322 14.2297 26.2683 14.2297 24.8611C14.2297 23.454 13.1223 22.4192 11.8224 22.4192C10.5226 22.4192 9.4152 23.4572 9.4152 24.8611C9.4152 26.2651 10.5384 27.322 11.8224 27.322ZM11.8224 20.1729C14.4568 20.1729 16.7758 22.069 16.7758 24.8643C16.7758 27.6596 14.4568 29.5715 11.8224 29.5715C9.18805 29.5715 6.86914 27.6912 6.86914 24.8643C6.86914 22.0374 9.20698 20.1729 11.8224 20.1729Z"
       fill="#F6F5F9"
       id="path2"
       style="fill:#000000" />
    <path
       d="M21.098 22.334C21.3978 20.6997 22.786 20.1729 23.5747 20.1729C23.8744 20.1729 23.9596 20.1918 24.2436 20.2423V22.823C23.8744 22.7347 23.4012 22.7 23.1362 22.7C22.1518 22.7 21.1675 23.2805 21.1675 24.4731V29.3728H18.5488V20.3622H21.0949V22.3309L21.098 22.334Z"
       fill="#F6F5F9"
       id="path3"
       style="fill:#000000" />
    <path
       d="M33.6826 20.4346H35.7018V22.4191H33.6826V29.3758H31.064V22.4191H29.7988V20.4346H31.064V19.8384C31.064 17.2197 32.6099 16.4846 34.1906 16.4846C36.317 16.4846 37.071 17.8381 37.071 19.1727C37.071 19.261 37.0363 19.5607 36.9827 19.6648H34.9635C35.0172 19.6112 35.0329 19.4377 35.0329 19.3651C35.0329 18.9423 34.8563 18.5732 34.3483 18.5732C33.8403 18.5732 33.6794 19.0307 33.6794 19.4156V20.4346H33.6826Z"
       fill="#F6F5F9"
       id="path4"
       style="fill:#000000" />
    <path
       d="M46.0651 29.3758H43.4465V28.1454C42.6925 29.1992 41.7428 29.5683 40.6544 29.5683C38.1241 29.5683 37.4395 27.5491 37.4395 25.2649V20.3652H40.0581V25.2144C40.0581 26.4606 40.5156 27.4103 41.7271 27.4103C42.9386 27.4103 43.4497 26.4449 43.4497 25.1987V20.3684H46.0683V29.379L46.0651 29.3758Z"
       fill="#F6F5F9"
       id="path5"
       style="fill:#000000" />
    <path
       d="M51.6525 20.3655H54.1481V22.4193H51.6525V26.6344C51.6525 27.0193 51.8103 27.4263 52.3214 27.4263C52.8325 27.4263 53.006 27.0035 53.006 26.5839C53.006 26.3221 52.9366 25.9529 52.883 25.8109H54.9558C55.1136 26.1454 55.1672 26.565 55.1672 26.8836C55.1672 28.2182 54.2901 29.5717 52.1637 29.5717C50.583 29.5717 49.0371 29.0101 49.0371 26.3915V22.4225H47.6836V20.3686H49.2295L49.6334 18.157H51.6525V20.3686V20.3655Z"
       fill="#F6F5F9"
       id="path6"
       style="fill:#000000" />
    <path
       d="M65.0749 29.3758H62.4563V28.1454C61.7023 29.1992 60.7526 29.5683 59.6641 29.5683C57.1338 29.5683 56.4492 27.5491 56.4492 25.2649V20.3652H59.0647V25.2144C59.0647 26.4606 59.5222 27.4103 60.7337 27.4103C61.9452 27.4103 62.4563 26.4449 62.4563 25.1987V20.3684H65.0749V29.379V29.3758Z"
       fill="#F6F5F9"
       id="path7"
       style="fill:#000000" />
    <path
       d="M69.9738 22.334C70.2735 20.6997 71.6617 20.1729 72.4504 20.1729C72.7502 20.1729 72.8354 20.1918 73.1193 20.2423V22.823C72.7502 22.7347 72.2769 22.7 72.0119 22.7C71.0276 22.7 70.0464 23.2805 70.0464 24.4731V29.3728H67.4277V20.3622H69.9738V22.3309V22.334Z"
       fill="#F6F5F9"
       id="path8"
       style="fill:#000000" />
    <path
       d="M76.542 23.8957H81.0568C80.8801 22.7347 79.7033 22.2961 78.8262 22.2961C77.9491 22.2961 76.8575 22.6842 76.542 23.8957ZM83.2526 27.7953C81.9717 29.1992 80.268 29.5684 79.0534 29.5684C75.7154 29.5684 73.8887 27.4798 73.8887 24.9148C73.8887 22.3498 75.9615 20.1729 78.8609 20.1729C81.3565 20.1729 83.7448 21.8955 83.7448 25.4795H76.4915C76.5452 26.6027 77.58 27.4293 79.249 27.4293C80.1797 27.4293 81.1104 26.956 81.7446 26.3566L83.2558 27.7984L83.2526 27.7953Z"
       fill="#F6F5F9"
       id="path9"
       style="fill:#000000" />
    <path
       d="M34.8444 2.01925C35.7751 2.01925 36.9866 2.2117 38.5325 3.3538L37.3368 5.26887C36.4597 4.47697 35.4217 4.37286 34.9643 4.37286C33.4373 4.37286 32.4182 5.33828 32.4182 6.70754C32.4182 8.0768 33.4373 9.04222 34.9643 9.04222C35.4217 9.04222 36.4566 8.9381 37.3368 8.1462L38.5325 10.0613C36.9866 11.2034 35.7751 11.3958 34.8444 11.3958C31.7525 11.3958 29.8027 9.37664 29.8027 6.70438C29.8027 4.03212 31.7525 2.01294 34.8444 2.01294"
       fill="#F6F5F9"
       id="path10"
       style="fill:#000000" />
    <path
       d="M42.0615 5.74508H46.5763C46.3996 4.58405 45.2228 4.14551 44.3457 4.14551C43.4687 4.14551 42.377 4.53357 42.0615 5.74508ZM48.7722 9.64463C47.4912 11.0486 45.7876 11.4177 44.5729 11.4177C41.2349 11.4177 39.4082 9.32913 39.4082 6.76414C39.4082 4.19915 41.481 2.02222 44.3804 2.02222C46.876 2.02222 49.2643 3.74483 49.2643 7.32888H42.0079C42.0615 8.45205 43.0964 9.27865 44.7653 9.27865C45.6961 9.27865 46.6268 8.80541 47.2609 8.20596L48.7722 9.64778V9.64463Z"
       fill="#F6F5F9"
       id="path11"
       style="fill:#000000" />
    <path
       d="M50.8809 2.21174H53.4995V3.44218C54.2535 2.38842 55.2032 2.01929 56.2916 2.01929C58.8219 2.01929 59.5066 4.03847 59.5066 6.32267V11.2223H56.8911V6.37315C56.8911 5.12694 56.4336 4.17729 55.2221 4.17729C54.0106 4.17729 53.4995 5.14271 53.4995 6.39208V11.2223H50.8809V2.21174Z"
       fill="#F6F5F9"
       id="path12"
       style="fill:#000000" />
    <path
       d="M64.8635 2.21165H67.3591V4.26554H64.8635V8.48058C64.8635 8.86865 65.0212 9.27248 65.5323 9.27248C66.0435 9.27248 66.217 8.84972 66.217 8.4301C66.217 8.16824 66.1476 7.79911 66.0939 7.65714H68.1667C68.3245 7.99156 68.3781 8.41117 68.3781 8.72983C68.3781 10.0644 67.501 11.4179 65.3746 11.4179C63.794 11.4179 62.248 10.8563 62.248 8.23765V4.2687H60.8945V2.21481H62.4405L62.8443 0.00317383H64.8635V2.21481V2.21165Z"
       fill="#F6F5F9"
       id="path13"
       style="fill:#000000" />
    <path
       d="M72.3117 4.18044C72.6114 2.54617 73.9996 2.01929 74.7883 2.01929C75.0881 2.01929 75.1732 2.03822 75.4572 2.0887V4.67262C75.0881 4.58428 74.6148 4.54958 74.3498 4.54958C73.3654 4.54958 72.3842 5.13009 72.3842 6.32267V11.2223H69.7656V2.21174H72.3117V4.18044Z"
       fill="#F6F5F9"
       id="path14"
       style="fill:#000000" />
    <path
       d="M78.8799 5.74508H83.3947C83.218 4.58405 82.0412 4.14551 81.1641 4.14551C80.287 4.14551 79.1954 4.53357 78.8799 5.74508ZM85.5905 9.64463C84.3096 11.0486 82.6059 11.4177 81.3913 11.4177C78.0533 11.4177 76.2266 9.32913 76.2266 6.76414C76.2266 4.19915 78.2994 2.02222 81.1988 2.02222C83.6944 2.02222 86.0827 3.74483 86.0827 7.32888H78.8294C78.883 8.45205 79.9179 9.27865 81.5869 9.27865C82.5176 9.27865 83.4483 8.80541 84.0824 8.20596L85.5937 9.64778L85.5905 9.64463Z"
       fill="#F6F5F9"
       id="path15"
       style="fill:#000000" />
    <path
       d="M34.7371 43.7659C36.018 43.7659 37.0907 42.9393 37.0907 41.305C37.0907 39.6707 36.0906 38.6169 34.6677 38.6169C33.2448 38.6169 32.4182 39.7748 32.4182 41.163C32.4182 42.5512 33.2953 43.7627 34.7371 43.7627M39.6399 45.0657C39.6399 48.6151 37.321 50.0032 34.756 50.0032C32.7526 50.0032 31.3991 49.4921 30.4874 48.757L31.5253 46.7189C32.0522 47.1764 33.229 47.738 34.2292 47.738C35.5826 47.738 37.0213 47.3341 37.0213 45.3654V44.3811C36.3714 45.3118 35.5101 45.8923 34.1945 45.8923C31.4528 45.8923 29.8027 43.7848 29.8027 41.1504C29.8027 38.516 31.3297 36.4937 34.1408 36.4937C35.3523 36.4937 36.4061 37.0899 37.0213 37.9165V36.6861H39.6399V45.0657Z"
       fill="#F6F5F9"
       id="path16"
       style="fill:#000000" />
    <path
       d="M44.0811 40.2165H48.5958C48.4192 39.0586 47.2424 38.6169 46.3653 38.6169C45.4882 38.6169 44.3966 39.0019 44.0811 40.2165ZM50.7917 44.1161C49.5108 45.52 47.8071 45.8892 46.5924 45.8892C43.2545 45.8892 41.4277 43.7974 41.4277 41.2356C41.4277 38.6737 43.5006 36.4937 46.4 36.4937C48.8956 36.4937 51.2839 38.2163 51.2839 41.7972H44.0274C44.0811 42.9203 45.1159 43.7469 46.7849 43.7469C47.7156 43.7469 48.6463 43.2737 49.2805 42.6742L50.7917 44.1161Z"
       fill="#F6F5F9"
       id="path17"
       style="fill:#000000" />
    <path
       d="M52.9004 36.6861H55.519V37.9165C56.2731 36.8628 57.2227 36.4937 58.3112 36.4937C60.8415 36.4937 61.5261 38.5128 61.5261 40.797V45.6967H58.9106V40.8475C58.9106 39.6013 58.4531 38.6517 57.2416 38.6517C56.0301 38.6517 55.519 39.6171 55.519 40.8633V45.6936H52.9004V36.683V36.6861Z"
       fill="#F6F5F9"
       id="path18"
       style="fill:#000000" />
    <path
       d="M65.8467 40.2165H70.3615C70.1848 39.0586 69.008 38.6169 68.1309 38.6169C67.2538 38.6169 66.1622 39.0019 65.8467 40.2165ZM72.5573 44.1161C71.2764 45.52 69.5727 45.8892 68.358 45.8892C65.0201 45.8892 63.1934 43.7974 63.1934 41.2356C63.1934 38.6737 65.2662 36.4937 68.1656 36.4937C70.6612 36.4937 73.0495 38.2163 73.0495 41.7972H65.7931C65.8467 42.9203 66.8815 43.7469 68.5505 43.7469C69.4812 43.7469 70.4119 43.2737 71.0461 42.6742L72.5573 44.1161Z"
       fill="#F6F5F9"
       id="path19"
       style="fill:#000000" />
    <path
       d="M77.2113 38.6548C77.511 37.0205 78.8992 36.4937 79.688 36.4937C79.9877 36.4937 80.0729 36.5126 80.3568 36.5631V39.1438C79.9877 39.0555 79.5145 39.0208 79.2494 39.0208C78.2651 39.0208 77.2807 39.6013 77.2807 40.7939V45.6936H74.6621V36.683H77.2082V38.6517L77.2113 38.6548Z"
       fill="#F6F5F9"
       id="path20"
       style="fill:#000000" />
    <path
       d="M86.1336 43.7659C87.4145 43.7659 88.4872 42.9393 88.4872 41.305C88.4872 39.6707 87.4871 38.6169 86.0642 38.6169C84.6413 38.6169 83.8147 39.7748 83.8147 41.163C83.8147 42.5512 84.6918 43.7627 86.1336 43.7627M91.0364 36.6861V45.6967H88.4178V44.3779C87.7679 45.3086 86.9066 45.8892 85.5909 45.8892C82.8493 45.8892 81.1992 43.7816 81.1992 41.1472C81.1992 38.5128 82.7262 36.4937 85.5373 36.4937C86.7488 36.4937 87.8026 37.0899 88.4178 37.9165V36.6861H91.0364Z"
       fill="#F6F5F9"
       id="path21"
       style="fill:#000000" />
    <path
       d="M96.6049 36.686H99.1005V38.7399H96.6049V42.9549C96.6049 43.3398 96.7627 43.7437 97.2706 43.7437C97.7786 43.7437 97.9553 43.3209 97.9553 42.9013C97.9553 42.6394 97.8858 42.2703 97.8322 42.1283H99.905C100.063 42.4628 100.116 42.8824 100.116 43.201C100.116 44.5356 99.2393 45.8891 97.1129 45.8891C95.5322 45.8891 93.9863 45.3275 93.9863 42.7088V38.7399H92.6328V36.686H94.1788L94.5826 34.4744H96.6018V36.686H96.6049Z"
       fill="#F6F5F9"
       id="path22"
       style="fill:#000000" />
    <path
       d="M101.54 36.686H104.159V45.6966H101.54V36.686ZM102.875 32.8054C103.805 32.8054 104.544 33.4206 104.544 34.2977C104.544 35.1748 103.805 35.7553 102.875 35.7553C101.944 35.7553 101.225 35.159 101.225 34.2977C101.225 33.4364 101.928 32.8054 102.875 32.8054Z"
       fill="#F6F5F9"
       id="path23"
       style="fill:#000000" />
    <path
       d="M110.92 43.6428C112.22 43.6428 113.327 42.5891 113.327 41.1851C113.327 39.7811 112.22 38.7431 110.92 38.7431C109.62 38.7431 108.513 39.778 108.513 41.1851C108.513 42.5922 109.636 43.6428 110.92 43.6428ZM110.92 36.4937C113.555 36.4937 115.873 38.3898 115.873 41.1851C115.873 43.9804 113.555 45.8923 110.92 45.8923C108.286 45.8923 105.967 44.012 105.967 41.1851C105.967 38.3582 108.301 36.4937 110.92 36.4937Z"
       fill="#F6F5F9"
       id="path24"
       style="fill:#000000" />
    <path
       d="M117.65 36.6861H120.268V37.9165C121.022 36.8628 121.972 36.4937 123.06 36.4937C125.591 36.4937 126.275 38.5128 126.275 40.797V45.6967H123.657V40.8475C123.657 39.6013 123.199 38.6517 121.988 38.6517C120.776 38.6517 120.265 39.6171 120.265 40.8633V45.6936H117.646V36.683L117.65 36.6861Z"
       fill="#F6F5F9"
       id="path25"
       style="fill:#000000" />
    <path
       d="M129.698 42.5194C129.96 43.5543 130.875 43.8729 131.594 43.8729C132.175 43.8729 132.771 43.6458 132.771 43.1883C132.771 42.8886 132.594 42.6803 132.102 42.5037L130.522 41.838C128.379 41.0808 128.272 39.661 128.272 39.2572C128.272 37.4462 129.872 36.4998 131.802 36.4998C132.84 36.4998 134.21 36.7805 135.052 38.3959L133.033 39.3266C132.806 38.6073 132.156 38.4653 131.749 38.4653C131.257 38.4653 130.749 38.7461 130.749 39.2036C130.749 39.5885 131.137 39.7999 131.591 39.9765L132.945 40.5034C135.071 41.1186 135.263 42.5068 135.263 43.1031C135.263 44.9488 133.56 45.8953 131.575 45.8953C130.241 45.8953 128.414 45.4725 127.799 43.5953L129.695 42.5226L129.698 42.5194Z"
       fill="#F6F5F9"
       id="path26"
       style="fill:#000000" />
  </g>
  <defs
     id="defs26">
    <clipPath
       id="clip0_1130_14883">
      <rect
         width="135.266"
         height="50"
         fill="white"
         id="rect26" />
    </clipPath>
  </defs>
</svg>
